<svg xmlns="http://www.w3.org/2000/svg" version="1.1" xmlns:xlink="http://www.w3.org/1999/xlink" width="1000" height="1000"><style>
    #light-icon {
      display: inline;
    }
    #dark-icon {
      display: none;
    }

    @media (prefers-color-scheme: dark) {
      #light-icon {
        display: none;
      }
      #dark-icon {
        display: inline;
      }
    }
  </style><g id="light-icon"><svg xmlns="http://www.w3.org/2000/svg" version="1.1" xmlns:xlink="http://www.w3.org/1999/xlink" width="1000" height="1000"><g><g transform="matrix(5,0,0,5,0,0)"><svg xmlns="http://www.w3.org/2000/svg" version="1.1" xmlns:xlink="http://www.w3.org/1999/xlink" width="200" height="200"><svg id="Lager_1" data-name="Lager 1" xmlns="http://www.w3.org/2000/svg" viewBox="0 0 200 200">
  <path d="M93.15,77.72h-25.01v-8.37c0-3.91-.32-6.39-.96-7.46-.64-1.07-1.71-1.6-3.2-1.6-1.62,0-2.85.72-3.68,2.16-.83,1.44-1.25,3.63-1.25,6.56,0,3.77.47,6.61,1.4,8.51.89,1.91,3.43,4.21,7.61,6.9,11.99,7.76,19.54,14.12,22.65,19.1,3.11,4.98,4.67,13,4.67,24.06,0,8.04-.86,13.97-2.59,17.78-1.73,3.81-5.06,7.01-10.01,9.59-4.95,2.58-10.7,3.87-17.27,3.87-7.21,0-13.36-1.49-18.45-4.46-5.1-2.97-8.43-6.76-10.01-11.37-1.58-4.6-2.37-11.13-2.37-19.6v-7.39h25.01v13.74c0,4.23.35,6.95,1.06,8.16.7,1.21,1.95,1.81,3.74,1.81s3.12-.77,4-2.3,1.31-3.81,1.31-6.83c0-6.65-.83-10.99-2.49-13.04-1.71-2.05-5.91-5.46-12.6-10.25-6.69-4.83-11.13-8.34-13.3-10.53-2.17-2.19-3.98-5.21-5.4-9.07-1.43-3.86-2.14-8.79-2.14-14.78,0-8.65,1.01-14.97,3.04-18.97,2.02-4,5.3-7.12,9.82-9.38s9.98-3.38,16.37-3.38c6.99,0,12.95,1.23,17.88,3.7,4.92,2.46,8.19,5.57,9.79,9.31,1.6,3.74,2.4,10.1,2.4,19.07v4.46Z"></path>
  <path d="M162.18,113.01c0,11.34-.25,19.38-.74,24.09-.49,4.72-2.03,9.03-4.6,12.94-2.58,3.91-6.07,6.9-10.46,9-4.39,2.09-9.51,3.14-15.35,3.14s-10.52-.99-14.93-2.96-7.96-4.94-10.65-8.89c-2.69-3.95-4.29-8.25-4.8-12.9-.51-4.65-.77-12.79-.77-24.41v-19.32c0-11.34.25-19.38.74-24.09.49-4.72,2.02-9.03,4.6-12.94,2.58-3.91,6.07-6.9,10.46-9,4.39-2.09,9.51-3.14,15.35-3.14s10.52.99,14.93,2.96c4.41,1.98,7.96,4.94,10.65,8.89,2.69,3.95,4.29,8.25,4.8,12.9.51,4.65.77,12.79.77,24.41v19.32ZM108.2,37.83l12.82,12.82-11.8,11.8-12.82-12.82,11.8-11.8ZM135.25,75.91c0-5.25-.27-8.61-.8-10.08-.53-1.46-1.63-2.2-3.29-2.2-1.41,0-2.48.59-3.23,1.78-.75,1.19-1.12,4.68-1.12,10.5v52.72c0,6.55.24,10.6.74,12.13.49,1.53,1.63,2.3,3.42,2.3s3.01-.88,3.52-2.65c.51-1.77.77-5.97.77-12.62v-51.88ZM166.14,49.63l-12.82,12.82-11.8-11.8,12.82-12.82,11.8,11.8Z"></path>
</svg></svg></g></g></svg></g><g id="dark-icon"><svg xmlns="http://www.w3.org/2000/svg" version="1.1" xmlns:xlink="http://www.w3.org/1999/xlink" width="1000" height="1000"><g><g transform="matrix(5,0,0,5,0,0)"><svg xmlns="http://www.w3.org/2000/svg" version="1.1" xmlns:xlink="http://www.w3.org/1999/xlink" width="200" height="200"><svg id="Lager_1" data-name="Lager 1" xmlns="http://www.w3.org/2000/svg" viewBox="0 0 200 200">
  <defs>
    <style>
      .cls-1 {
        fill: #fff;
      }
    </style>
  </defs>
  <path class="cls-1" d="M93.15,77.72h-25.01v-8.37c0-3.91-.32-6.39-.96-7.46-.64-1.07-1.71-1.6-3.2-1.6-1.62,0-2.85.72-3.68,2.16-.83,1.44-1.25,3.63-1.25,6.56,0,3.77.47,6.61,1.4,8.51.89,1.91,3.43,4.21,7.61,6.9,11.99,7.76,19.54,14.12,22.65,19.1,3.11,4.98,4.67,13,4.67,24.06,0,8.04-.86,13.97-2.59,17.78-1.73,3.81-5.06,7.01-10.01,9.59-4.95,2.58-10.7,3.87-17.27,3.87-7.21,0-13.36-1.49-18.45-4.46-5.1-2.97-8.43-6.76-10.01-11.37-1.58-4.6-2.37-11.13-2.37-19.6v-7.39h25.01v13.74c0,4.23.35,6.95,1.06,8.16.7,1.21,1.95,1.81,3.74,1.81s3.12-.77,4-2.3,1.31-3.81,1.31-6.83c0-6.65-.83-10.99-2.49-13.04-1.71-2.05-5.91-5.46-12.6-10.25-6.69-4.83-11.13-8.34-13.3-10.53-2.17-2.19-3.98-5.21-5.4-9.07-1.43-3.86-2.14-8.79-2.14-14.78,0-8.65,1.01-14.97,3.04-18.97,2.02-4,5.3-7.12,9.82-9.38s9.98-3.38,16.37-3.38c6.99,0,12.95,1.23,17.88,3.7,4.92,2.46,8.19,5.57,9.79,9.31,1.6,3.74,2.4,10.1,2.4,19.07v4.46Z"></path>
  <path class="cls-1" d="M162.18,113.01c0,11.34-.25,19.38-.74,24.09-.49,4.72-2.03,9.03-4.6,12.94-2.58,3.91-6.07,6.9-10.46,9-4.39,2.09-9.51,3.14-15.35,3.14s-10.52-.99-14.93-2.96-7.96-4.94-10.65-8.89c-2.69-3.95-4.29-8.25-4.8-12.9-.51-4.65-.77-12.79-.77-24.41v-19.32c0-11.34.25-19.38.74-24.09.49-4.72,2.02-9.03,4.6-12.94,2.58-3.91,6.07-6.9,10.46-9,4.39-2.09,9.51-3.14,15.35-3.14s10.52.99,14.93,2.96c4.41,1.98,7.96,4.94,10.65,8.89,2.69,3.95,4.29,8.25,4.8,12.9.51,4.65.77,12.79.77,24.41v19.32ZM108.2,37.83l12.82,12.82-11.8,11.8-12.82-12.82,11.8-11.8ZM135.25,75.91c0-5.25-.27-8.61-.8-10.08-.53-1.46-1.63-2.2-3.29-2.2-1.41,0-2.48.59-3.23,1.78-.75,1.19-1.12,4.68-1.12,10.5v52.72c0,6.55.24,10.6.74,12.13.49,1.53,1.63,2.3,3.42,2.3s3.01-.88,3.52-2.65c.51-1.77.77-5.97.77-12.62v-51.88ZM166.14,49.63l-12.82,12.82-11.8-11.8,12.82-12.82,11.8,11.8Z"></path>
</svg></svg></g></g></svg></g></svg>