<?xml version="1.0" encoding="UTF-8"?>
<svg id="Lager_1" data-name="Lager 1" xmlns="http://www.w3.org/2000/svg" viewBox="0 0 807.64 181.99">
  <defs>
    <style>
      .cls-1 {
        font-family: Roboto-Black, Roboto;
        font-size: 61.33px;
        font-weight: 800;
      }
    </style>
  </defs>
  <path d="M59.29,43.24h-25.01v-8.37c0-3.91-.32-6.39-.96-7.46-.64-1.07-1.71-1.6-3.2-1.6-1.62,0-2.85.72-3.68,2.16-.83,1.44-1.25,3.63-1.25,6.56,0,3.77.47,6.61,1.4,8.51.89,1.91,3.43,4.21,7.61,6.9,11.99,7.76,19.54,14.12,22.65,19.1,3.11,4.98,4.67,13,4.67,24.06,0,8.04-.86,13.97-2.59,17.78-1.73,3.81-5.06,7.01-10.01,9.59-4.95,2.58-10.7,3.87-17.27,3.87-7.21,0-13.36-1.49-18.45-4.46-5.1-2.97-8.43-6.76-10.01-11.37-1.58-4.6-2.37-11.13-2.37-19.6v-7.39h25.01v13.74c0,4.23.35,6.95,1.06,8.16.7,1.21,1.95,1.81,3.74,1.81s3.12-.77,4-2.3,1.31-3.81,1.31-6.83c0-6.65-.83-10.99-2.49-13.04-1.71-2.05-5.91-5.46-12.6-10.25-6.69-4.83-11.13-8.34-13.3-10.53-2.17-2.19-3.98-5.21-5.4-9.07-1.43-3.86-2.14-8.79-2.14-14.78,0-8.65,1.01-14.97,3.04-18.97,2.02-4,5.3-7.12,9.82-9.38s9.98-3.38,16.37-3.38c6.99,0,12.95,1.23,17.88,3.7,4.92,2.46,8.19,5.57,9.79,9.31,1.6,3.74,2.4,10.1,2.4,19.07v4.46Z"/>
  <path d="M127.47,9.07v112.9h-23.6l-14.01-51.33v51.33h-22.51V9.07h22.51l15.09,50.84V9.07h22.51Z"/>
  <path d="M162.59,9.07v112.9h-26.93V9.07h26.93Z"/>
  <path d="M233.65,58.23h-26.93v-19.62c0-5.71-.29-9.27-.86-10.68-.58-1.41-1.84-2.12-3.81-2.12-2.22,0-3.62.86-4.22,2.58-.6,1.72-.9,5.44-.9,11.16v52.44c0,5.49.3,9.07.9,10.74.6,1.67,1.94,2.51,4.03,2.51s3.31-.84,3.93-2.52c.62-1.68.93-5.62.93-11.81v-14.19h26.93v4.4c0,11.69-.76,19.97-2.27,24.86-1.51,4.89-4.86,9.17-10.04,12.85-5.18,3.68-11.57,5.52-19.16,5.52s-14.39-1.56-19.51-4.67c-5.12-3.11-8.51-7.43-10.17-12.94s-2.5-13.8-2.5-24.86v-32.99c0-8.13.26-14.24.77-18.31.51-4.07,2.04-7.98,4.57-11.75,2.54-3.77,6.05-6.73,10.55-8.89,4.5-2.16,9.67-3.24,15.51-3.24,7.93,0,14.48,1.67,19.64,5.01s8.55,7.51,10.17,12.5c1.62,4.99,2.43,12.76,2.43,23.29v10.73Z"/>
  <path d="M304.88,9.07l-15.45,50.98,16.92,61.93h-27.82l-10.91-48.4v48.4h-26.93V9.07h26.93v43.86l11.99-43.86h25.26Z"/>
  <path d="M360.15,9.07l15.4,112.9h-27.52l-1.45-20.29h-9.63l-1.62,20.29h-27.84l13.74-112.9h38.92ZM345.88,81.66c-1.36-12.79-2.73-28.59-4.1-47.42-2.74,21.62-4.47,37.43-5.17,47.42h9.27Z"/>
  <path d="M380.12,9.07h19.06c12.71,0,21.31.54,25.81,1.6s8.17,3.8,11,8.19c2.83,4.39,4.25,11.4,4.25,21.03,0,8.79-1,14.69-3.01,17.71-2,3.02-5.95,4.84-11.83,5.44,5.33,1.44,8.91,3.37,10.75,5.79,1.83,2.42,2.97,4.64,3.42,6.66.45,2.02.67,7.59.67,16.7v29.78h-25.01v-37.52c0-6.04-.44-9.79-1.31-11.23-.88-1.44-3.17-2.16-6.88-2.16v50.91h-26.93V9.07ZM407.05,28.38v25.1c3.03,0,5.15-.45,6.36-1.36,1.21-.91,1.82-3.85,1.82-8.82v-6.21c0-3.58-.59-5.93-1.76-7.04-1.17-1.12-3.32-1.67-6.43-1.67Z"/>
  <path d="M509.58,75.17c0,11.34-.25,19.38-.74,24.09-.49,4.72-2.03,9.03-4.6,12.94-2.58,3.91-6.07,6.9-10.46,9-4.39,2.09-9.51,3.14-15.35,3.14s-10.52-.99-14.93-2.96-7.96-4.94-10.65-8.89c-2.69-3.95-4.29-8.25-4.8-12.9-.51-4.65-.77-12.79-.77-24.41v-19.32c0-11.34.25-19.38.74-24.09.49-4.72,2.02-9.03,4.6-12.94,2.58-3.91,6.07-6.9,10.46-9,4.39-2.09,9.51-3.14,15.35-3.14s10.52.99,14.93,2.96c4.41,1.98,7.96,4.94,10.65,8.89,2.69,3.95,4.29,8.25,4.8,12.9.51,4.65.77,12.79.77,24.41v19.32ZM455.6,0l12.82,12.82-11.8,11.8-12.82-12.82,11.8-11.8ZM482.65,38.08c0-5.25-.27-8.61-.8-10.08-.53-1.46-1.63-2.2-3.29-2.2-1.41,0-2.48.59-3.23,1.78-.75,1.19-1.12,4.68-1.12,10.5v52.72c0,6.55.24,10.6.74,12.13.49,1.53,1.63,2.3,3.42,2.3s3.01-.88,3.52-2.65c.51-1.77.77-5.97.77-12.62v-51.88ZM513.54,11.8l-12.82,12.82-11.8-11.8,12.82-12.82,11.8,11.8Z"/>
  <path d="M578.91,9.07v112.9h-26.93v-47.42h-8.06v47.42h-26.93V9.07h26.93v40.38h8.06V9.07h26.93Z"/>
  <path d="M670.19,9.07v112.9h-23.54l-.03-76.22-9.37,76.22h-16.69l-9.88-74.48-.03,74.48h-23.54V9.07h34.84c1.03,6.79,2.1,14.79,3.2,24l3.82,28.72,6.19-52.72h35.03Z"/>
  <path d="M727.54,9.07l15.4,112.9h-27.52l-1.45-20.29h-9.63l-1.62,20.29h-27.84l13.74-112.9h38.92ZM713.27,81.66c-1.36-12.79-2.73-28.59-4.1-47.42-2.74,21.62-4.47,37.43-5.17,47.42h9.27Z"/>
  <path d="M807.64,9.07v112.9h-23.6l-14.01-51.33v51.33h-22.51V9.07h22.51l15.09,50.84V9.07h22.51Z"/>
  <text class="cls-1" transform="translate(0 181.99) scale(.92 1)"><tspan x="0" y="0">BYGG I NORR AB</tspan></text>
</svg>